<?xml version="1.0" encoding="UTF-8" standalone="no"?>
<!-- Created with Inkscape (http://www.inkscape.org/) -->

<svg
   version="1.1"
   id="svg1"
   width="500"
   height="500"
   viewBox="0 0 500 500"
   sodipodi:docname="Imagen1.svg"
   inkscape:version="1.3.2 (091e20e, 2023-11-25, custom)"
   inkscape:export-filename="Imagen2.png"
   inkscape:export-xdpi="96"
   inkscape:export-ydpi="96"
   xmlns:inkscape="http://www.inkscape.org/namespaces/inkscape"
   xmlns:sodipodi="http://sodipodi.sourceforge.net/DTD/sodipodi-0.dtd"
   xmlns="http://www.w3.org/2000/svg"
   xmlns:svg="http://www.w3.org/2000/svg">
  <defs
     id="defs1" />
  <sodipodi:namedview
     id="namedview1"
     pagecolor="#505050"
     bordercolor="#ffffff"
     borderopacity="1"
     inkscape:showpageshadow="0"
     inkscape:pageopacity="0"
     inkscape:pagecheckerboard="1"
     inkscape:deskcolor="#505050"
     inkscape:zoom="0.7071068"
     inkscape:cx="-33.234018"
     inkscape:cy="154.85638"
     inkscape:window-width="1920"
     inkscape:window-height="974"
     inkscape:window-x="-11"
     inkscape:window-y="-11"
     inkscape:window-maximized="1"
     inkscape:current-layer="g1" />
  <g
     inkscape:groupmode="layer"
     inkscape:label="Image"
     id="g1"
     style="display:inline">
    <path
       style="display:inline;opacity:1;fill:#1891c6;fill-opacity:1;fill-rule:evenodd;stroke:none;stroke-width:0.847;stroke-dasharray:none;stroke-opacity:1"
       d="m 204.07107,464.14214 67.5,-71.5 c 39.77894,-13.99651 90.97443,-21.74337 123,-101 l 85.5,-4 c -25.63007,161.93484 -190.53986,197.80611 -276,176.5 z"
       id="path12"
       sodipodi:nodetypes="ccccc"
       inkscape:label="azul medio der" />
    <path
       style="display:inline;opacity:1;fill:#51c44f;fill-opacity:1;fill-rule:evenodd;stroke:none;stroke-width:0.847;stroke-dasharray:none;stroke-opacity:1"
       d="m 193.66206,192.34925 72.90901,-1.20711 141.125,-106.750005 c -28.8711,-21.9177 -45.72477,-29.577893 -62.125,-30.75 C 314.63689,52.21823 303.73692,80.473658 193.66206,192.34925 Z"
       id="path15"
       sodipodi:nodetypes="ccccc"
       inkscape:label="verde claro derecho" />
    <path
       style="display:inline;opacity:1;fill:#2da24d;fill-opacity:1;fill-rule:evenodd;stroke:none;stroke-width:0.847;stroke-dasharray:none;stroke-opacity:1"
       d="m 250.02818,181.92247 c 53.84683,-16.39045 28.05411,9.79971 57.42677,6.66421 49.42607,-60.30757 59.01049,-30.07399 78.61612,-0.44454 l 75.40901,-35.32322 C 431.07291,97.851596 412.05376,86.96937 396.32107,76.142135 353.45742,72.191162 299.11151,134.17247 250.02818,181.92247 Z"
       id="path14"
       sodipodi:nodetypes="cccccc"
       inkscape:label="verde claro der" />
    <path
       style="display:inline;opacity:1;fill:#032c42;fill-opacity:1;fill-rule:evenodd;stroke:none;stroke-width:0.847;stroke-dasharray:none;stroke-opacity:1"
       d="m 380.35508,116.06003 c 51.98265,29.25093 79.73602,100.63324 44.71599,217.08211 18.14325,-13.10303 33.23149,-39.64811 54.5,-39 11.88526,-58.57937 3.24757,-119.59534 -42.59662,-180.08839 -22.71835,-6.23145 -43.21692,-7.73238 -56.61937,2.00628 z"
       id="path16"
       sodipodi:nodetypes="ccccc"
       inkscape:label="Azul oscuro der" />
    <path
       style="display:inline;opacity:1;fill:#15addf;fill-opacity:1;fill-rule:evenodd;stroke:none;stroke-width:0.847;stroke-dasharray:none;stroke-opacity:1"
       d="m 286.57107,385.64214 c -28.53357,5.82086 -54.53532,49.95094 2.5,46.5 129.73705,-38.95367 193.55417,-143.06724 135.75,-269.25 -39.51325,-27.47636 -55.84706,-15.70517 -64.75,-7.75 78.69716,72.32314 34.25071,207.38502 -73.5,230.5 z"
       id="path13"
       sodipodi:nodetypes="ccccc"
       inkscape:label="azul claro der" />
    <path
       style="display:inline;opacity:1;fill:#1aa4da;fill-opacity:1;fill-rule:evenodd;stroke:none;stroke-width:0.847;stroke-dasharray:none;stroke-opacity:1"
       d="m 244.32107,326.64214 c -58.50524,-3.31752 -79.43334,-68.22938 -63.75,-113 26.66466,-62.99878 115.84716,-64.7416 148,-0.25 24.24732,88.64952 -62.07813,112.20225 -83.25,114.75 l 10.17808,-48.12998 c 22.44293,-2.65434 37.05366,-23.3589 33.57192,-42.62002 -6.30159,-39.55404 -61.84124,-40.67422 -70,-2.5 -5.47097,25.02246 17.22521,43.44916 32.5625,45.5625 z"
       id="path11"
       sodipodi:nodetypes="ccccccccc"
       inkscape:label="circulo azul claro" />
    <path
       style="display:inline;opacity:1;fill:#42b843;fill-opacity:1;fill-rule:evenodd;stroke:none;stroke-width:3.64724;stroke-opacity:1"
       d="M 237.86403,101.79302 302.18339,33.059591 C 157.51642,-5.0825818 -19.914403,121.287 32.924925,314.29911 L 111.74766,282.77002 C 95.259043,193.47591 131.63342,134.1445 237.86403,101.79302 Z"
       id="path4"
       sodipodi:nodetypes="ccccc"
       inkscape:label="verde claro izq" />
    <path
       style="display:inline;opacity:1;fill:#032c42;fill-opacity:1;fill-rule:evenodd;stroke:none;stroke-width:3.64724;stroke-opacity:1"
       d="m 108.27946,253.44796 c -41.378381,-2.02151 -67.609956,16.60751 -75.357744,60.82806 17.842336,55.39132 94.807044,152.93805 151.973444,120.46423 4.66886,-1.3164 46.71882,-44.57328 88.37399,-88.95336 16.18543,-17.24421 33.39941,-31.60495 44.72923,-50.12947 15.52861,-25.38966 17.25153,-53.93053 14.13764,-69.00919 -9.47986,17.19524 -15.23664,36.52199 -50.3357,38.17641 l -12.10064,10.30517 -0.80934,-39.39785 c -9.14382,15.782 -19.08153,18.26184 -29.88735,0.12779 -2.88351,29.45118 4.57397,72.30643 -7.76006,89.15925 -76.634,61.75238 -112.74708,28.0966 -122.96347,-71.57104 z"
       id="path5"
       sodipodi:nodetypes="cccssccccccc"
       inkscape:label="Azul oscuro sirena" />
    <path
       style="display:inline;opacity:1;fill:#53c554;fill-opacity:1;fill-rule:evenodd;stroke:none;stroke-width:3.64724;stroke-opacity:1"
       d="m 88.159446,155.93784 49.828064,3.00975 c -60.593802,71.18575 -19.92556,175.55496 16.26158,171.89962 11.74266,-1.18615 25.9702,-10.36728 39.77862,-30.1779 8.905,9.36341 18.7461,18.60997 38.18787,23.65727 -27.95683,33.51528 -54.3548,57.78207 -77.12998,57.58774 C 85.053022,381.31675 22.814168,254.40695 88.159446,155.93784 Z"
       id="path3"
       sodipodi:nodetypes="ccsccsc"
       inkscape:label="verde medio izq" />
    <path
       style="display:inline;opacity:1;fill:#2fa64c;fill-opacity:1;fill-rule:evenodd;stroke:none;stroke-width:3.64724;stroke-opacity:1"
       d="M 230.01543,104.65754 C 257.75468,85.965891 241.35946,66.443375 227.78598,66.311114 176.85556,72.133204 125.90596,93.73315 84.707479,161.38896 91.000784,159.07869 96.026812,156.13479 111.20657,158.26775 94.243774,183.63759 60.450662,262.94811 128.79869,316.45469 90.796096,259.64058 93.817901,141.62998 230.01543,104.65754 Z"
       id="path2"
       sodipodi:nodetypes="cccccc"
       inkscape:label="verde oscuro izq" />
    <path
       style="display:inline;opacity:1;fill:#4cc04c;fill-opacity:1;fill-rule:evenodd;stroke:none;stroke-width:3.64724;stroke-opacity:1"
       d="m 268.75857,234.82964 c 0.008,-17.79547 -29.70029,-16.66872 -30.0625,0.8125 0.0989,19.20097 30.03098,20.08449 30.0625,-0.8125 z"
       id="path7"
       sodipodi:nodetypes="ccc"
       inkscape:label="circulo verde 3" />
    <path
       style="display:inline;opacity:1;fill:#4cc04c;fill-opacity:1;fill-rule:evenodd;stroke:none;stroke-width:3.64724;stroke-opacity:1"
       d="m 156.63925,246.25058 c -0.3121,-18.19559 -28.04665,-17.91417 -28.0625,0 0.0232,17.68591 27.94035,19.08431 28.0625,0 z"
       id="path8"
       sodipodi:nodetypes="ccc"
       inkscape:label="circulo verde 2" />
    <path
       d="m 364.77615,232.8648 c -6.97463,0.0352 -13.912,4.58394 -13.91992,13.54101 0.0232,17.68589 27.94035,19.08429 28.0625,0 -0.15605,-9.09778 -7.16796,-13.57619 -14.14258,-13.54101 z"
       style="display:inline;opacity:1;fill:#4cc04c;fill-rule:evenodd;stroke-width:3.64724"
       id="path10"
       inkscape:label="criculo verde 1" />
  </g>
</svg>
